<svg width="1282" height="1388" viewBox="0 0 1282 1388" fill="none" xmlns="http://www.w3.org/2000/svg">
<path d="M608.264 921.644L336.764 605.844C331.664 599.944 338.564 591.344 345.464 595.144L528.064 694.244C536.664 698.944 543.364 706.544 546.764 715.744L620.264 914.744C622.864 921.944 613.364 927.644 608.264 921.644Z" fill="white"/>
<path d="M647.466 849.045L572.566 478.745C571.466 473.245 572.566 467.445 575.566 462.745L706.266 258.145C708.866 254.045 715.266 256.245 714.766 261.145L656.566 848.645C656.166 853.945 648.566 854.245 647.466 849.045Z" fill="white"/>
<path d="M712.365 739.943L856.065 530.843C860.965 523.743 869.565 520.043 878.165 521.343L970.065 535.243C975.965 536.143 977.965 543.643 973.265 547.343L719.565 746.743C715.065 750.243 709.165 744.743 712.365 739.943Z" fill="white"/>
<path d="M733.863 596.645L807.364 131.944C808.164 127.144 814.764 126.544 816.364 131.144L881.564 320.944C883.464 326.644 883.064 332.844 880.264 338.144L742.564 599.544C740.064 604.144 732.963 601.845 733.863 596.645Z" fill="white"/>
<path d="M418.763 504.945L435.163 388.245C435.863 383.445 442.463 382.545 444.363 387.045L545.763 623.445C547.763 628.245 541.863 632.445 538.063 628.845L424.863 522.445C420.163 517.945 417.763 511.345 418.763 504.945Z" fill="white"/>
<path d="M204.532 1262.91C190.56 1258.71 179.383 1253.12 171 1246.14L183.574 1217.5C191.957 1223.78 201.738 1228.67 213.614 1232.87C225.49 1237.06 237.365 1239.15 249.241 1239.15C263.912 1239.15 274.39 1237.06 282.075 1232.17C289.061 1227.28 292.554 1220.99 292.554 1214C292.554 1208.42 290.458 1203.53 286.266 1200.03C282.075 1196.54 277.185 1193.75 270.897 1191.65C264.61 1189.55 256.227 1187.46 245.748 1184.66C231.078 1181.17 218.504 1177.68 209.422 1174.18C200.341 1170.69 191.958 1165.1 185.67 1157.42C178.684 1149.73 175.89 1139.26 175.89 1126.68C175.89 1115.5 178.684 1105.72 184.972 1096.64C190.56 1087.56 199.642 1080.57 211.518 1075.68C223.394 1070.1 238.064 1068 254.83 1068C266.706 1068 278.582 1069.4 290.458 1072.89C302.334 1075.68 312.114 1079.88 320.497 1085.46L309.32 1114.11C300.937 1109.22 291.855 1105.02 282.075 1102.93C272.993 1100.13 263.912 1098.74 254.83 1098.74C240.16 1098.74 229.681 1100.83 222.695 1105.72C215.709 1110.61 212.216 1116.9 212.216 1125.28C212.216 1130.87 214.312 1135.76 218.504 1139.26C222.695 1142.75 227.585 1145.54 233.873 1147.64C240.16 1149.73 248.543 1151.83 259.022 1154.62C273.692 1158.12 285.568 1161.61 294.649 1165.1C303.731 1168.6 312.114 1174.18 319.1 1181.87C326.086 1189.55 328.88 1199.33 328.88 1211.91C328.88 1223.09 326.086 1232.87 319.798 1241.25C314.21 1250.33 305.128 1257.32 293.252 1262.21C281.376 1267.8 266.706 1269.89 249.241 1269.89C233.174 1269.89 218.504 1267.1 204.532 1262.91Z" fill="white"/>
<path d="M495.843 1078.48C508.417 1084.07 518.197 1092.45 525.183 1102.93C532.169 1113.41 535.662 1125.98 535.662 1140.65C535.662 1155.32 532.169 1167.2 525.183 1177.68C518.197 1188.15 509.116 1196.54 495.843 1202.13C483.268 1207.72 468.598 1210.51 451.133 1210.51H406.424V1267.09H370.098V1070.09H451.133C467.9 1070.09 483.268 1072.89 495.843 1078.48ZM486.063 1169.29C494.446 1162.31 498.637 1153.23 498.637 1140.65C498.637 1128.08 494.446 1118.3 486.063 1112.01C477.68 1105.02 465.804 1101.53 449.736 1101.53H407.123V1179.77H449.736C465.804 1179.07 477.68 1175.58 486.063 1169.29Z" fill="white"/>
<path d="M683.062 1221.69H584.561L565.001 1267.1H527.277L615.997 1070.1H651.625L740.346 1267.1H701.923L683.062 1221.69ZM671.186 1192.35L634.161 1106.42L597.136 1192.35H671.186Z" fill="white"/>
<path d="M896.133 1267.1L856.314 1209.81C854.917 1209.81 852.123 1209.81 848.63 1209.81H803.92V1267.1H767.594V1070.1H848.63C865.396 1070.1 880.764 1072.89 893.339 1078.48C905.913 1084.07 915.694 1092.45 922.68 1102.93C929.665 1113.41 933.158 1125.98 933.158 1140.65C933.158 1155.32 929.665 1167.9 922.68 1179.08C915.694 1189.55 905.215 1197.94 891.942 1202.83L937.35 1267.79L896.133 1267.1ZM882.86 1111.31C874.477 1104.33 862.601 1100.83 846.534 1100.83H803.92V1179.08H846.534C862.601 1179.08 874.477 1175.58 882.86 1168.6C891.243 1161.61 895.435 1151.83 895.435 1139.26C895.435 1127.38 891.243 1117.6 882.86 1111.31Z" fill="white"/>
<path d="M1043.53 1184.66L1012.09 1216.8V1267.09H975.766V1070.09H1012.09V1170.69L1109.2 1070.09H1150.41L1067.98 1158.12L1156 1267.09H1113.39L1043.53 1184.66Z" fill="white"/>
</svg>
