<svg width="3014" height="946" viewBox="0 0 3014 946" fill="none" xmlns="http://www.w3.org/2000/svg">
<path d="M378.264 868.644L106.764 552.844C101.664 546.944 108.564 538.344 115.464 542.144L298.064 641.244C306.664 645.944 313.364 653.544 316.764 662.744L390.264 861.744C392.864 868.944 383.364 874.644 378.264 868.644Z" fill="url(#paint0_linear_230_411)"/>
<path d="M417.465 796.045L342.565 425.745C341.465 420.245 342.565 414.445 345.565 409.745L476.265 205.145C478.865 201.045 485.265 203.245 484.765 208.145L426.565 795.645C426.165 800.945 418.565 801.245 417.465 796.045Z" fill="url(#paint1_linear_230_411)"/>
<path d="M482.364 686.944L626.064 477.844C630.964 470.744 639.564 467.044 648.164 468.344L740.064 482.244C745.964 483.144 747.964 490.644 743.264 494.344L489.564 693.744C485.064 697.244 479.164 691.744 482.364 686.944Z" fill="url(#paint2_linear_230_411)"/>
<path d="M503.864 543.645L577.364 78.9445C578.164 74.1445 584.764 73.5445 586.364 78.1445L651.564 267.944C653.464 273.644 653.064 279.844 650.264 285.144L512.564 546.544C510.064 551.144 502.964 548.845 503.864 543.645Z" fill="url(#paint3_linear_230_411)"/>
<path d="M188.764 451.945L205.164 335.245C205.864 330.445 212.464 329.545 214.364 334.045L315.764 570.445C317.764 575.245 311.864 579.445 308.064 575.845L194.864 469.445C190.164 464.945 187.764 458.345 188.764 451.945Z" fill="url(#paint4_linear_230_411)"/>
<path d="M1003.94 680.263C976.463 672.021 954.484 661.031 938 647.294L962.726 590.972C979.211 603.336 998.443 612.951 1021.8 621.193C1045.15 629.435 1068.5 633.557 1091.85 633.557C1120.7 633.557 1141.31 629.436 1156.42 619.82C1170.16 610.204 1177.02 597.841 1177.02 584.104C1177.02 573.114 1172.9 563.498 1164.66 556.63C1156.42 549.761 1146.8 544.266 1134.44 540.145C1122.08 536.024 1105.59 531.903 1084.99 526.408C1056.14 519.54 1031.41 512.671 1013.55 505.803C995.695 498.934 979.211 487.944 966.848 472.834C953.111 457.723 947.616 437.118 947.616 412.391C947.616 390.412 953.111 371.18 965.474 353.321C976.464 335.463 994.322 321.726 1017.67 312.11C1041.03 301.121 1069.88 297 1102.84 297C1126.2 297 1149.55 299.748 1172.9 306.616C1196.26 312.111 1215.49 320.353 1231.97 331.343L1209.99 387.664C1193.51 378.048 1175.65 369.806 1156.42 365.685C1138.56 360.19 1120.7 357.443 1102.84 357.443C1074 357.443 1053.39 361.564 1039.65 371.18C1025.92 380.796 1019.05 393.159 1019.05 409.644C1019.05 420.633 1023.17 430.249 1031.41 437.118C1039.65 443.986 1049.27 449.481 1061.63 453.602C1074 457.723 1090.48 461.844 1111.09 467.339C1139.93 474.208 1163.29 481.076 1181.14 487.945C1199 494.813 1215.49 505.802 1229.22 520.913C1242.96 536.024 1248.46 555.256 1248.46 579.982C1248.46 601.961 1242.96 621.193 1230.6 637.678C1219.61 655.536 1201.75 669.273 1178.4 678.889C1155.04 689.878 1126.2 694 1091.85 694C1060.26 694 1031.41 688.505 1003.94 680.263Z" fill="black"/>
<path d="M1576.77 317.602C1601.5 328.591 1620.73 345.076 1634.47 365.681C1648.2 386.287 1655.07 411.014 1655.07 439.862C1655.07 468.709 1648.2 492.062 1634.47 512.668C1620.73 533.273 1602.87 549.757 1576.77 560.747C1552.04 571.737 1523.2 577.232 1488.85 577.232H1400.94V688.501H1329.5V301.117H1488.85C1521.82 301.117 1552.04 306.612 1576.77 317.602ZM1557.54 496.183C1574.02 482.446 1582.26 464.588 1582.26 439.862C1582.26 415.135 1574.02 395.903 1557.54 383.539C1541.05 369.802 1517.7 362.934 1486.11 362.934H1402.31V516.788H1486.11C1517.7 515.415 1541.05 508.546 1557.54 496.183Z" fill="black"/>
<path d="M1944.92 599.213H1751.23L1712.76 688.504H1638.58L1813.04 301.12H1883.1L2057.56 688.504H1982.01L1944.92 599.213ZM1921.57 541.518L1848.76 372.553L1775.96 541.518H1921.57Z" fill="black"/>
<path d="M2363.91 688.504L2285.61 575.86C2282.86 575.86 2277.37 575.86 2270.5 575.86H2182.58V688.504H2111.15V301.12H2270.5C2303.47 301.12 2333.69 306.615 2358.42 317.605C2383.14 328.594 2402.37 345.079 2416.11 365.684C2429.85 386.29 2436.72 411.017 2436.72 439.864C2436.72 468.712 2429.85 493.439 2416.11 515.418C2402.37 536.024 2381.77 552.507 2355.67 562.123L2444.96 689.877L2363.91 688.504ZM2337.81 382.169C2321.33 368.432 2297.97 361.563 2266.38 361.563H2182.58V515.418H2266.38C2297.97 515.418 2321.33 508.55 2337.81 494.812C2354.29 481.075 2362.54 461.843 2362.54 437.117C2362.54 413.764 2354.29 394.532 2337.81 382.169Z" fill="black"/>
<path d="M2653.74 526.405L2591.93 589.594V688.501H2520.49V301.117H2591.93V498.931L2782.87 301.117H2863.92L2701.82 474.204L2874.91 688.501H2791.11L2653.74 526.405Z" fill="black"/>
<defs>
<linearGradient id="paint0_linear_230_411" x1="47.957" y1="75.7035" x2="308.32" y2="896.97" gradientUnits="userSpaceOnUse">
<stop stop-color="#F78E1E"/>
<stop offset="1" stop-color="#F2A529"/>
</linearGradient>
<linearGradient id="paint1_linear_230_411" x1="394.623" y1="14.9721" x2="446.471" y2="836.794" gradientUnits="userSpaceOnUse">
<stop stop-color="#F78E1E"/>
<stop offset="1" stop-color="#F2A529"/>
</linearGradient>
<linearGradient id="paint2_linear_230_411" x1="561.429" y1="166.536" x2="631.975" y2="737.77" gradientUnits="userSpaceOnUse">
<stop stop-color="#F78E1E"/>
<stop offset="1" stop-color="#F2A529"/>
</linearGradient>
<linearGradient id="paint3_linear_230_411" x1="543.675" y1="54.4153" x2="622.784" y2="867.064" gradientUnits="userSpaceOnUse">
<stop stop-color="#F78E1E"/>
<stop offset="1" stop-color="#F2A529"/>
</linearGradient>
<linearGradient id="paint4_linear_230_411" x1="111.133" y1="207.156" x2="428.917" y2="873.708" gradientUnits="userSpaceOnUse">
<stop stop-color="#F78E1E"/>
<stop offset="1" stop-color="#F2A529"/>
</linearGradient>
</defs>
</svg>
