<svg width="3014" height="946" viewBox="0 0 3014 946" fill="none" xmlns="http://www.w3.org/2000/svg">
<path d="M378.264 868.644L106.764 552.844C101.664 546.944 108.564 538.344 115.464 542.144L298.064 641.244C306.664 645.944 313.364 653.544 316.764 662.744L390.264 861.744C392.864 868.944 383.364 874.644 378.264 868.644Z" fill="white"/>
<path d="M417.465 796.045L342.565 425.745C341.465 420.245 342.565 414.445 345.565 409.745L476.265 205.145C478.865 201.045 485.265 203.245 484.765 208.145L426.565 795.645C426.165 800.945 418.565 801.245 417.465 796.045Z" fill="white"/>
<path d="M482.364 686.944L626.064 477.844C630.964 470.744 639.564 467.044 648.164 468.344L740.064 482.244C745.964 483.144 747.964 490.644 743.264 494.344L489.564 693.744C485.064 697.244 479.164 691.744 482.364 686.944Z" fill="white"/>
<path d="M503.864 543.645L577.364 78.9445C578.164 74.1445 584.764 73.5445 586.364 78.1445L651.564 267.944C653.464 273.644 653.064 279.844 650.264 285.144L512.564 546.544C510.064 551.144 502.964 548.845 503.864 543.645Z" fill="white"/>
<path d="M188.764 451.945L205.164 335.245C205.864 330.445 212.464 329.545 214.364 334.045L315.764 570.445C317.764 575.245 311.864 579.445 308.064 575.845L194.864 469.445C190.164 464.945 187.764 458.345 188.764 451.945Z" fill="white"/>
<path d="M1003.94 681.263C976.463 673.021 954.484 662.031 938 648.294L962.726 591.972C979.211 604.336 998.443 613.951 1021.8 622.193C1045.15 630.435 1068.5 634.557 1091.85 634.557C1120.7 634.557 1141.31 630.436 1156.42 620.82C1170.16 611.204 1177.02 598.841 1177.02 585.104C1177.02 574.114 1172.9 564.498 1164.66 557.63C1156.42 550.761 1146.8 545.266 1134.44 541.145C1122.08 537.024 1105.59 532.903 1084.99 527.408C1056.14 520.54 1031.41 513.671 1013.55 506.803C995.695 499.934 979.211 488.944 966.848 473.834C953.111 458.723 947.616 438.118 947.616 413.391C947.616 391.412 953.111 372.18 965.474 354.321C976.464 336.463 994.322 322.726 1017.67 313.11C1041.03 302.121 1069.88 298 1102.84 298C1126.2 298 1149.55 300.748 1172.9 307.616C1196.26 313.111 1215.49 321.353 1231.97 332.343L1209.99 388.664C1193.51 379.048 1175.65 370.806 1156.42 366.685C1138.56 361.19 1120.7 358.443 1102.84 358.443C1074 358.443 1053.39 362.564 1039.65 372.18C1025.92 381.796 1019.05 394.159 1019.05 410.644C1019.05 421.633 1023.17 431.249 1031.41 438.118C1039.65 444.986 1049.27 450.481 1061.63 454.602C1074 458.723 1090.48 462.844 1111.09 468.339C1139.93 475.208 1163.29 482.076 1181.14 488.945C1199 495.813 1215.49 506.802 1229.22 521.913C1242.96 537.024 1248.46 556.256 1248.46 580.982C1248.46 602.961 1242.96 622.193 1230.6 638.678C1219.61 656.536 1201.75 670.273 1178.4 679.889C1155.04 690.878 1126.2 695 1091.85 695C1060.26 695 1031.41 689.505 1003.94 681.263Z" fill="white"/>
<path d="M1576.77 318.602C1601.5 329.591 1620.73 346.076 1634.47 366.681C1648.2 387.287 1655.07 412.014 1655.07 440.862C1655.07 469.709 1648.2 493.062 1634.47 513.668C1620.73 534.273 1602.87 550.757 1576.77 561.747C1552.04 572.737 1523.2 578.232 1488.85 578.232H1400.94V689.501H1329.5V302.117H1488.85C1521.82 302.117 1552.04 307.612 1576.77 318.602ZM1557.54 497.183C1574.02 483.446 1582.26 465.588 1582.26 440.862C1582.26 416.135 1574.02 396.903 1557.54 384.539C1541.05 370.802 1517.7 363.934 1486.11 363.934H1402.31V517.788H1486.11C1517.7 516.415 1541.05 509.546 1557.54 497.183Z" fill="white"/>
<path d="M1944.92 600.214H1751.23L1712.77 689.505H1638.59L1813.05 302.121H1883.1L2057.56 689.505H1982.01L1944.92 600.214ZM1921.57 542.519L1848.76 373.554L1775.96 542.519H1921.57Z" fill="white"/>
<path d="M2363.91 689.505L2285.61 576.861C2282.86 576.861 2277.37 576.861 2270.5 576.861H2182.58V689.505H2111.15V302.121H2270.5C2303.47 302.121 2333.69 307.616 2358.41 318.606C2383.14 329.595 2402.37 346.08 2416.11 366.685C2429.85 387.291 2436.72 412.018 2436.72 440.865C2436.72 469.713 2429.85 494.44 2416.11 516.419C2402.37 537.025 2381.77 553.508 2355.67 563.124L2444.96 690.878L2363.91 689.505ZM2337.81 383.17C2321.32 369.433 2297.97 362.564 2266.38 362.564H2182.58V516.419H2266.38C2297.97 516.419 2321.32 509.55 2337.81 495.813C2354.29 482.076 2362.54 462.844 2362.54 438.118C2362.54 414.765 2354.29 395.533 2337.81 383.17Z" fill="white"/>
<path d="M2653.74 527.405L2591.93 590.594V689.501H2520.49V302.117H2591.93V499.931L2782.87 302.117H2863.92L2701.82 475.204L2874.91 689.501H2791.11L2653.74 527.405Z" fill="white"/>
</svg>
